<?xml version="1.0" encoding="UTF-8" standalone="no"?>
<!DOCTYPE svg PUBLIC "-//W3C//DTD SVG 1.1//EN" "http://www.w3.org/Graphics/SVG/1.1/DTD/svg11.dtd">
<svg version="1.1" xmlns="http://www.w3.org/2000/svg" xmlns:xlink="http://www.w3.org/1999/xlink" preserveAspectRatio="xMidYMid meet" viewBox="0 0 200 200" width="200" height="200"><defs><path d="M186.46 2.64C193.45 2.64 199.12 8.3 199.12 15.29C199.12 52.12 199.12 149.94 199.12 186.77C199.12 193.76 193.45 199.42 186.46 199.42C149.27 199.42 50.35 199.42 13.16 199.42C6.17 199.42 0.5 193.76 0.5 186.77C0.5 149.94 0.5 52.12 0.5 15.29C0.5 8.3 6.17 2.64 13.16 2.64C50.35 2.64 149.27 2.64 186.46 2.64Z" id="c1n4FcEZR8"></path><path d="M23.95 43.54L51.32 43.54L51.32 159.18L23.95 159.18L23.95 43.54Z" id="g1PHEcHA4h"></path><path d="M173.82 15.18L174.49 180.72L147.13 180.83L146.46 15.29L173.82 15.18Z" id="cqROL4a32"></path><path d="M44.47 27.09L51.32 39.01L37.63 39.01L23.95 39.01L30.79 27.09L37.63 15.18L44.47 27.09Z" id="hb7qSuqWB"></path><path d="M23.95 164.06L51.32 164.06L51.32 180.84L23.95 180.84L23.95 164.06Z" id="b80ZXsIQc"></path><path d="M170.4 163.84L147.21 180.61L63.35 62.74L63.35 15.07L170.4 163.84Z" id="b16dIR704j"></path></defs><g><g><g><use xlink:href="#c1n4FcEZR8" opacity="1" fill="#008a7d" fill-opacity="1"></use></g><g><use xlink:href="#g1PHEcHA4h" opacity="1" fill="#ffffff" fill-opacity="1"></use></g><g><use xlink:href="#cqROL4a32" opacity="1" fill="#ffffff" fill-opacity="1"></use></g><g><use xlink:href="#hb7qSuqWB" opacity="1" fill="#ffffff" fill-opacity="1"></use></g><g><use xlink:href="#b80ZXsIQc" opacity="1" fill="#ffffff" fill-opacity="1"></use></g><g><use xlink:href="#b16dIR704j" opacity="1" fill="#ffffff" fill-opacity="1"></use><g><use xlink:href="#b16dIR704j" opacity="1" fill-opacity="0" stroke="#000000" stroke-width="0" stroke-opacity="1"></use></g></g></g></g></svg>